<?xml version="1.0" encoding="utf-8"?>
<!-- Generator: Adobe Illustrator 23.0.5, SVG Export Plug-In . SVG Version: 6.00 Build 0)  -->
<svg version="1.1" id="Layer_1" xmlns="http://www.w3.org/2000/svg" xmlns:xlink="http://www.w3.org/1999/xlink" x="0px" y="0px"
	 viewBox="0 0 148 25" style="enable-background:new 0 0 148 25;" xml:space="preserve">
<style type="text/css">
	.st0{fill:#FFFFFF;}
	.st1{fill-rule:evenodd;clip-rule:evenodd;fill:#5267DF;}
	.st2{fill-rule:evenodd;clip-rule:evenodd;fill:#FFFFFF;}
</style>
<g>
	<path class="st0" d="M37,6.3h5.2c0.7,0,1.4,0.2,2.1,0.5c0.6,0.3,1.1,0.7,1.5,1.3s0.5,1.1,0.5,1.8c0,0.7-0.2,1.3-0.5,1.7
		c-0.3,0.5-0.8,0.9-1.3,1.1v0.1c0.7,0.2,1.3,0.6,1.7,1.2c0.4,0.5,0.6,1.2,0.6,1.9c0,0.7-0.2,1.4-0.6,2c-0.4,0.6-0.9,1-1.6,1.3
		c-0.7,0.3-1.4,0.5-2.2,0.5H37V6.3z M42,11.7c0.5,0,1-0.2,1.3-0.5c0.3-0.3,0.5-0.7,0.5-1.1c0-0.4-0.2-0.8-0.5-1.1
		c-0.3-0.3-0.7-0.5-1.3-0.5h-2.6v3.2C39.5,11.7,42,11.7,42,11.7z M42.3,17.4c0.6,0,1.1-0.2,1.4-0.5c0.3-0.3,0.5-0.7,0.5-1.2
		c0-0.5-0.2-0.9-0.5-1.3c-0.3-0.3-0.8-0.5-1.5-0.5h-2.7v3.5H42.3z M55.2,20c-1.3,0-2.5-0.3-3.6-0.9c-1-0.6-1.9-1.5-2.5-2.5
		c-0.6-1.1-0.9-2.2-0.9-3.5c0-1.3,0.3-2.5,0.9-3.5c0.6-1.1,1.5-1.9,2.5-2.5C52.8,6.3,53.9,6,55.2,6c1.3,0,2.5,0.3,3.6,0.9
		c1,0.6,1.9,1.5,2.5,2.5c0.6,1.1,0.9,2.2,0.9,3.5c0,1.3-0.3,2.5-0.9,3.5c-0.6,1.1-1.5,1.9-2.5,2.5C57.7,19.7,56.6,20,55.2,20
		L55.2,20z M55.2,17.6c0.8,0,1.6-0.2,2.3-0.6c0.7-0.4,1.2-0.9,1.6-1.6c0.4-0.7,0.6-1.5,0.6-2.4s-0.2-1.7-0.6-2.4
		c-0.4-0.7-0.9-1.2-1.6-1.6c-0.7-0.4-1.5-0.6-2.3-0.6c-0.8,0-1.6,0.2-2.3,0.6c-0.7,0.4-1.2,0.9-1.6,1.6c-0.4,0.7-0.6,1.5-0.6,2.4
		c0,0.9,0.2,1.7,0.6,2.4c0.4,0.7,0.9,1.2,1.6,1.6C53.7,17.4,54.5,17.6,55.2,17.6z M70.6,20c-1.3,0-2.5-0.3-3.6-0.9
		c-1-0.6-1.9-1.5-2.5-2.5c-0.6-1.1-0.9-2.2-0.9-3.5c0-1.3,0.3-2.5,0.9-3.5C65.1,8.4,66,7.5,67,6.9C68.1,6.3,69.3,6,70.6,6
		c1.3,0,2.5,0.3,3.6,0.9c1,0.6,1.9,1.5,2.5,2.5c0.6,1.1,0.9,2.2,0.9,3.5c0,1.3-0.3,2.5-0.9,3.5c-0.6,1.1-1.5,1.9-2.5,2.5
		C73.1,19.7,71.9,20,70.6,20z M70.6,17.6c0.8,0,1.6-0.2,2.3-0.6c0.7-0.4,1.2-0.9,1.6-1.6c0.4-0.7,0.6-1.5,0.6-2.4s-0.2-1.7-0.6-2.4
		c-0.4-0.7-0.9-1.2-1.6-1.6c-0.7-0.4-1.5-0.6-2.3-0.6c-0.8,0-1.6,0.2-2.3,0.6c-0.7,0.4-1.2,0.9-1.6,1.6c-0.4,0.7-0.6,1.5-0.6,2.4
		c0,0.9,0.2,1.7,0.6,2.4c0.4,0.7,0.9,1.2,1.6,1.6C69,17.4,69.8,17.6,70.6,17.6z M79.8,6.3h2.5V12h0.2l4.9-5.7h3v0.1L85.6,12l5.3,7.5
		v0.1h-3.1l-4-5.7l-1.5,1.8v3.9h-2.5L79.8,6.3L79.8,6.3z M93.8,6H97l3.5,9.4h0.2l3.5-9.4h3.3v13.4H105v-6.6l0.2-2.2H105l-3.4,8.8h-2
		l-3.4-8.8h-0.1l0.2,2.2v6.6h-2.5L93.8,6L93.8,6z M114.6,6h2.9l5,13.4h-2.8l-1.1-3.2h-5.1l-1.1,3.2h-2.8C109.6,19.4,114.6,6,114.6,6
		z M117.8,13.9l-1.2-3.4l-0.5-1.6H116l-0.5,1.6l-1.2,3.4H117.8L117.8,13.9z M124.6,6h4.9c0.9,0,1.6,0.2,2.3,0.5
		c0.7,0.4,1.2,0.9,1.6,1.5c0.4,0.6,0.6,1.4,0.6,2.2c0,0.9-0.3,1.6-0.8,2.3c-0.5,0.7-1.2,1.2-2,1.4l0,0.1l3.6,5.1v0.1h-2.9l-3.5-5
		h-1.2v5h-2.5C124.6,19.4,124.6,6,124.6,6z M129.4,12c0.6,0,1-0.2,1.4-0.5c0.4-0.3,0.5-0.8,0.5-1.3c0-0.5-0.2-0.9-0.5-1.3
		c-0.3-0.4-0.8-0.5-1.4-0.5h-2.4V12L129.4,12L129.4,12z M136.6,6h2.5v5.7h0.1l4.9-5.7h3v0.2l-4.8,5.5l5.3,7.5v0.1h-3.1l-4-5.7
		l-1.5,1.8v3.9h-2.5L136.6,6L136.6,6z"/>
	<g>
		<circle class="st1" cx="12.5" cy="12.5" r="12.5"/>
		<path class="st2" d="M9,9v10l3.5-3.4l3.5,3.4V9c0-1.1-0.9-2-2-2H11C9.9,7,9,7.9,9,9z"/>
	</g>
</g>
</svg>
